<?xml version="1.0" encoding="UTF-8"?><svg id="a" xmlns="http://www.w3.org/2000/svg" viewBox="0 0 307.48 194.82"><defs><style>.b{stroke-width:3px;}.b,.c,.d{fill:none;stroke:#f490a3;stroke-miterlimit:10;}.c{stroke-width:2px;}</style></defs><polygon class="d" points="287.78 35.2 285.25 35.2 285.25 43.91 283.6 43.91 283.6 35.2 281.07 35.2 281.07 43.91 279.58 43.91 279.58 35.2 277.05 35.2 277.05 43.91 275.57 43.91 275.57 35.2 273.04 35.2 273.04 43.91 273 43.91 273 57.22 277.39 57.22 277.39 92.66 283.38 92.66 283.38 57.22 287.77 57.22 287.77 48.42 287.78 48.42 287.78 35.2"/><polyline class="b" points="256.31 57.11 256.31 92.55 262.3 92.55 262.3 57.11"/><line class="c" x1="41.33" y1="69.7" x2="41.01" y2="70.38"/><polyline class="b" points="54.83 17.94 51.07 17.94 41.01 17.94 8.27 90.63 8.27 145.79 8.27 167.98 31.47 167.98 31.47 90.63 41.01 70.38 41.01 188.23 127.52 188.23 127.52 71.42 137.16 90.63 137.16 167.98 160.36 167.98 160.36 90.63 127.52 17.94 117 17.94 112.82 17.94"/><g><line class="d" x1="66.51" y1="4.7" x2="75.86" y2="23.13"/><g><path class="d" d="M84.89,41.78l-5.52-11.38-3.51-7.27-13.76,19.21-7.26-24.4,11.68-13.24h34.63l11.69,13.24-7.27,24.4-13.69-19.12s-.05,0-.04,.02l3.42,18.54-20.42,14.85V187.97"/><line class="d" x1="91.8" y1="23.13" x2="101.14" y2="4.7"/></g></g><circle class="d" cx="75.09" cy="38.63" r="2.68"/><circle class="d" cx="83.82" cy="56.47" r="2.68"/><circle class="d" cx="83.82" cy="76.31" r="2.68"/><circle class="d" cx="83.82" cy="96.14" r="2.68"/><circle class="d" cx="83.82" cy="115.98" r="2.68"/><circle class="d" cx="83.82" cy="135.81" r="2.68"/><circle class="d" cx="83.82" cy="155.65" r="2.68"/><circle class="d" cx="83.82" cy="175.48" r="2.68"/><line class="d" x1="31.34" y1="145.79" x2="8.27" y2="145.79"/><line class="d" x1="160.61" y1="145.79" x2="137.38" y2="145.79"/><polygon class="d" points="256.99 116.07 256.99 161.25 248.27 180.63 182.85 180.63 182.85 116.07 256.99 116.07"/><rect class="d" x="199.53" y="90.35" width="6.9" height="25.72"/><rect class="d" x="210.82" y="90.35" width="6.91" height="25.72"/><rect class="d" x="222.12" y="90.35" width="6.9" height="25.72"/><rect class="d" x="233.41" y="90.35" width="6.91" height="25.72"/><polygon class="d" points="202.98 80.27 199.96 87.66 206 87.66 202.98 80.27"/><polygon class="d" points="214.27 80.27 211.25 87.66 217.29 87.66 214.27 80.27"/><polygon class="d" points="225.55 80.27 222.53 87.66 228.58 87.66 225.55 80.27"/><polygon class="d" points="236.84 80.27 233.82 87.66 239.86 87.66 236.84 80.27"/><path class="d" d="M293.44,181.18s-11.2,5.59-23.12,5.59-22.3-5.59-22.3-5.59l.25-.55,8.72-19.38,13.11-29.12c.23-.51,1.05-.51,1.27,0l22.07,49.05Z"/><path class="b" d="M276.48,125.79c0,2.71-2.49,4.9-5.56,4.9s-5.57-2.2-5.57-4.9,2.49-4.91,5.57-4.91,5.56,2.21,5.56,4.91Z"/><g><line class="b" x1="189.56" y1="72.47" x2="189.56" y2="61.14"/><circle class="d" cx="189.56" cy="40.17" r="16.66"/><line class="b" x1="189.56" y1="7.93" x2="189.56" y2="19.25"/><line class="b" x1="157.17" y1="40.02" x2="168.5" y2="40.02"/><line class="b" x1="221.81" y1="40.17" x2="210.49" y2="40.17"/><line class="b" x1="212.42" y1="63.03" x2="204.42" y2="55.02"/><line class="b" x1="166.79" y1="17.39" x2="174.79" y2="25.4"/><line class="b" x1="166.58" y1="62.99" x2="174.59" y2="54.98"/><line class="b" x1="212.39" y1="17.39" x2="204.38" y2="25.4"/></g><line class="d" x1="92.98" y1="30.11" x2="74.82" y2="56.63"/><ellipse class="b" cx="259.17" cy="46.71" rx="7.27" ry="11.44"/></svg>