<svg id="Layer_1" data-name="Layer 1" xmlns="http://www.w3.org/2000/svg" viewBox="0 0 792 135.53"><defs><style>.cls-1{fill:#fff;stroke:#6d6e71;stroke-miterlimit:10;}</style></defs><polyline class="cls-1" points="-2.08 9.34 436.14 9.34 792.47 9.34"/><line class="cls-1" x1="-2.07" y1="12.16" x2="792.47" y2="12.16"/><line class="cls-1" x1="-2.07" y1="16.99" x2="792.47" y2="16.99"/><line class="cls-1" x1="-0.95" y1="22.07" x2="793.59" y2="22.07"/><line class="cls-1" x1="0.18" y1="29.15" x2="794.72" y2="29.15"/><line class="cls-1" x1="0.18" y1="38.19" x2="794.72" y2="38.19"/><line class="cls-1" x1="0.18" y1="49.22" x2="794.72" y2="49.22"/><line class="cls-1" x1="0.18" y1="62.21" x2="794.72" y2="62.21"/><line class="cls-1" x1="0.18" y1="77.2" x2="794.72" y2="77.2"/><line class="cls-1" x1="0.18" y1="95.84" x2="794.72" y2="95.84"/><line class="cls-1" x1="0.18" y1="115.47" x2="794.72" y2="115.47"/><line class="cls-1" x1="402.21" y1="9.29" x2="342.4" y2="130.45"/><line class="cls-1" x1="624.18" y1="128.56" x2="436.14" y2="9.34"/><line class="cls-1" x1="60.8" y1="128.38" x2="376.37" y2="9.32"/><line class="cls-1" x1="334.14" y1="9.34" x2="-8.1" y2="83.58"/><line class="cls-1" x1="293.64" y1="9.34" x2="-9.23" y2="56.47"/></svg>