<?xml version="1.0" encoding="UTF-8"?><svg id="a" xmlns="http://www.w3.org/2000/svg" viewBox="0 0 307.48 194.82"><defs><style>.b{stroke-width:3px;}.b,.c,.d{fill:none;stroke:#f490a3;stroke-miterlimit:10;}.c{stroke-width:2px;}</style></defs><rect class="b" x="6.66" y="43.52" width="67.58" height="94.12"/><polygon class="d" points="104.72 55.24 75.16 55.24 75.16 42.96 42.82 42.96 42.82 36.47 42.82 10.3 104.72 10.3 104.72 55.24"/><polygon class="d" points="85.52 188.96 7.81 188.96 7.81 181.4 85.52 181.4 96.52 185.15 85.52 188.96"/><rect class="d" x="86.62" y="115.38" width="38.07" height="54.63"/><line class="d" x1="12.66" y1="52" x2="68.23" y2="52"/><line class="d" x1="12.66" y1="61.6" x2="68.23" y2="61.6"/><g><line class="b" x1="98.88" y1="109.74" x2="98.88" y2="89.03"/><line class="b" x1="105.66" y1="109.74" x2="105.66" y2="89.03"/><line class="b" x1="112.43" y1="109.74" x2="112.43" y2="89.03"/></g><line class="d" x1="12.66" y1="71.2" x2="68.23" y2="71.2"/><line class="d" x1="12.66" y1="80.8" x2="68.23" y2="80.8"/><line class="d" x1="12.66" y1="90.4" x2="68.23" y2="90.4"/><line class="d" x1="12.66" y1="100" x2="68.23" y2="100"/><line class="d" x1="12.66" y1="109.6" x2="68.23" y2="109.6"/><line class="d" x1="12.66" y1="119.2" x2="68.23" y2="119.2"/><line class="d" x1="12.66" y1="128.8" x2="68.23" y2="128.8"/><polyline class="d" points="124.69 123.1 137.58 123.1 137.58 162.07 124.41 162.07"/><polyline class="d" points="124.58 127.9 132.61 127.9 132.61 156.89 124.41 156.89"/><g><polygon class="d" points="141.51 37.19 146.38 63.76 167.1 17.19 118.03 27.42 141.51 37.19"/><line class="d" x1="141.51" y1="37.19" x2="167.1" y2="17.19"/></g><polyline class="d" points="42.82 10.3 73.32 37.6 104.72 10.3"/><line class="d" x1="55.18" y1="42.88" x2="66.92" y2="31.76"/><line class="d" x1="104.72" y1="55.24" x2="79.91" y2="30.94"/><line class="d" x1="15.07" y1="181.38" x2="15.07" y2="188.91"/><line class="d" x1="85.52" y1="181.4" x2="85.52" y2="188.96"/><line class="c" x1="182.51" y1="69.7" x2="182.19" y2="70.38"/><polyline class="b" points="196.01 17.94 192.24 17.94 182.19 17.94 149.44 90.63 149.44 145.79 149.44 167.98 172.65 167.98 172.65 90.63 182.19 70.38 182.19 188.23 268.69 188.23 268.69 71.42 278.34 90.63 278.34 167.98 301.54 167.98 301.54 90.63 268.69 17.94 258.18 17.94 254 17.94"/><g><line class="d" x1="207.68" y1="4.7" x2="217.03" y2="23.13"/><g><polyline class="d" points="220.66 30.66 220.54 30.41 217.03 23.13 203.27 42.34 196.01 17.94 207.68 4.7 242.32 4.7 254 17.94 246.73 42.34 232.97 23.13 225.86 23.13 215.99 36.63 215.99 42.47 215.99 187.97"/><line class="d" x1="232.97" y1="23.13" x2="242.32" y2="4.7"/></g></g><circle class="d" cx="224.99" cy="36.63" r="2.68"/><circle class="d" cx="224.99" cy="56.47" r="2.68"/><circle class="d" cx="224.99" cy="76.31" r="2.68"/><circle class="d" cx="224.99" cy="96.14" r="2.68"/><circle class="d" cx="224.99" cy="115.98" r="2.68"/><circle class="d" cx="224.99" cy="135.81" r="2.68"/><circle class="d" cx="224.99" cy="155.65" r="2.68"/><circle class="d" cx="224.99" cy="175.48" r="2.68"/><line class="d" x1="172.51" y1="145.79" x2="149.44" y2="145.79"/><line class="d" x1="301.79" y1="145.79" x2="278.55" y2="145.79"/></svg>